<svg id="Layer_1" data-name="Layer 1" xmlns="http://www.w3.org/2000/svg" viewBox="0 0 1200 1200"><defs><style>.cls-1{fill:#f2b561;}</style></defs><title>Lindvino_Leaf_yellow</title><path class="cls-1" d="M605.85,883.05c0,16,.16,32-.08,48a41,41,0,0,0,3.81,17.63,118.25,118.25,0,0,0,14.17,24.16c.59.77,1.15,1.57,1.69,2.38,1.77,2.67,1.08,5.11-2,6a77.44,77.44,0,0,1-10.27,2.45,82.52,82.52,0,0,1-32.75-1.28,26,26,0,0,1-4.33-1.39c-2.74-1.21-3.27-3-1.65-5.57,1-1.64,2.25-3.17,3.39-4.74a114.07,114.07,0,0,0,12.71-22.29c.74-1.73,1.4-3.5,2.07-5.26a26.46,26.46,0,0,0,1.63-9.46q0-51.34,0-102.68a23.52,23.52,0,0,0-.11-2.91c-.35-2.75-2.07-3.8-4.64-2.84a24.55,24.55,0,0,0-2.8,1.31,179,179,0,0,1-29.18,12.35A183.25,183.25,0,0,1,523,846.38a189.69,189.69,0,0,1-30,1,169.27,169.27,0,0,1-28.52-3.74,179.16,179.16,0,0,1-44-15.63,172.24,172.24,0,0,1-34.09-22.65c-3.91-3.36-7.8-6.79-11.44-10.44a183.45,183.45,0,0,1-26.84-34.19,322.88,322.88,0,0,1-15.51-28.49,292.78,292.78,0,0,1-17.32-45.83A289,289,0,0,1,307,647.88c-.87-6-1.43-12.07-2-18.11a238.13,238.13,0,0,1-1-31.14c.24-7.52.77-15,1.34-22.55A246.56,246.56,0,0,1,309,549.73a301.89,301.89,0,0,1,7.49-30.81,289.26,289.26,0,0,1,14.05-37.15,282.16,282.16,0,0,1,13-25.08A297.12,297.12,0,0,1,364,425.9,238.69,238.69,0,0,1,379.72,407c4.91-5.22,9.76-10.52,14.91-15.51a292,292,0,0,1,32.59-27.17,306,306,0,0,1,29.39-18.65,240.49,240.49,0,0,1,27.22-13.21c7.48-3,15.05-5.89,22.65-8.62,4.8-1.72,9.8-2.89,14.61-4.6A110.57,110.57,0,0,0,593,231.76c.58-3.78.85-7.6,1.22-11.41.2-2,.81-3.78,2.86-4.48,2.31-.8,4.69-.92,6.82.56,1.47,1,1.85,2.61,2,4.3.43,4.17.79,8.36,1.43,12.49a105.85,105.85,0,0,0,8.29,27.5A111.06,111.06,0,0,0,664.8,313a122.63,122.63,0,0,0,24.25,9.44,210.62,210.62,0,0,1,25.68,9.35c6.8,2.95,13.55,6,20.17,9.37a279.38,279.38,0,0,1,38.38,23.46c6.94,5,13.69,10.31,20.17,15.92,2.9,2.5,5.7,5.11,8.53,7.69,1.53,1.39,3.06,2.78,4.53,4.23a306.76,306.76,0,0,1,34.2,39.74,303.36,303.36,0,0,1,20.21,32.28,289.61,289.61,0,0,1,19.93,45.75,265.57,265.57,0,0,1,10.61,41.66c1.22,7.37,2.32,14.77,3.15,22.19.68,6,.94,12.11,1.26,18.18.22,4.3.31,8.62.31,12.93a298.1,298.1,0,0,1-15.5,94.57A290.33,290.33,0,0,1,862.14,743a248.79,248.79,0,0,1-19.71,31.94A162.17,162.17,0,0,1,830.2,789.6c-2.33,2.47-4.77,4.85-7.17,7.26A163.54,163.54,0,0,1,801.17,815a175.09,175.09,0,0,1-36.65,19.8,180.27,180.27,0,0,1-76,12.52,173.92,173.92,0,0,1-41.77-7.12,186.16,186.16,0,0,1-25.86-9.88c-2.48-1.16-4.88-2.48-7.34-3.67a23.88,23.88,0,0,0-3.85-1.6,2.55,2.55,0,0,0-3.4,1.88,8.12,8.12,0,0,0-.35,2.14c-.07,1.15,0,2.31,0,3.47Zm0-384.48v43c0,3.22,0,6.44,0,9.66a11.63,11.63,0,0,0,.49,3,2.18,2.18,0,0,0,2.47,1.72,13.45,13.45,0,0,0,3.69-.82,141.8,141.8,0,0,0,20.14-11,165.57,165.57,0,0,0,32.62-27.29,174.11,174.11,0,0,0,13.17-16,167.43,167.43,0,0,0,15.59-26.31A173.73,173.73,0,0,0,704.89,445a17.65,17.65,0,0,0-.31-10.4c-1.46-4.38-2.79-8.81-4.39-13.14-3-8.27-6.11-16.53-9.42-24.69-2.59-6.42-5.37-12.78-8.41-19-4.6-9.45-9.35-18.83-14.33-28.09-5.32-9.91-11.3-19.43-17.45-28.85a26.72,26.72,0,0,0-6.24-6.83,131.79,131.79,0,0,1-19.09-17.41A120.56,120.56,0,0,1,607.18,270c-1.44-2.87-2.69-5.85-4.07-8.76a12.18,12.18,0,0,0-1.41-2.32,2,2,0,0,0-3.27-.09,8.39,8.39,0,0,0-1.26,2c-1.55,3.23-3,6.5-4.61,9.71a119.08,119.08,0,0,1-20.62,29.24,122.89,122.89,0,0,1-15.86,13.94,21.5,21.5,0,0,0-5.23,5.28c-2.35,3.55-4.71,7.09-7,10.68A442.09,442.09,0,0,0,520.37,372q-8.36,17.13-15.21,34.92-5.42,13.94-9.85,28.22a15.37,15.37,0,0,0-.25,9.15c1.69,5.58,3.29,11.2,5.22,16.7a151.42,151.42,0,0,0,11.3,24.26,170.55,170.55,0,0,0,14.89,22,164.86,164.86,0,0,0,20.16,21.27A171.87,171.87,0,0,0,568,544.64a150.91,150.91,0,0,0,19.69,10.67,11.25,11.25,0,0,0,2.78.82,2.64,2.64,0,0,0,3.27-1.92,9.15,9.15,0,0,0,.44-2.32c.08-1.15,0-2.31,0-3.46q0-50.23,0-100.47c0-1.27.11-2.55.18-3.82.21-3.58,2.54-4.74,5.47-4.8a9.21,9.21,0,0,1,2.34.3,4,4,0,0,1,3.24,3.52,31.73,31.73,0,0,1,.33,4.35Q605.88,473,605.85,498.57ZM594.27,744.81h0q0-23.79,0-47.59c0-4-1.44-5.76-5.29-6.78-2.64-.7-5.3-1.33-7.94-2a297.57,297.57,0,0,1-71-29.47,299.75,299.75,0,0,1-32-21.37,258.38,258.38,0,0,1-20.89-17.62,327,327,0,0,1-24-24.93,300.81,300.81,0,0,1-21.48-28.3,296.85,296.85,0,0,1-23.57-42.53,283.72,283.72,0,0,1-16.66-47.41c-1.91-7.66-3.39-15.43-5.09-23.14a13.74,13.74,0,0,0-1-3.1c-.77-1.5-2-1.75-3.28-.6a16.62,16.62,0,0,0-2.58,3,266.74,266.74,0,0,0-17.92,32.77,276,276,0,0,0-15.39,41.69,36.76,36.76,0,0,0-1.06,5,14,14,0,0,0,1,6.43,455.69,455.69,0,0,0,41,88.88c6.63,11.06,13.68,21.85,21.33,32.22,5.12,6.94,10.31,13.85,15.78,20.52,5.82,7.08,11.93,13.94,18.05,20.76,5.89,6.56,12.07,12.83,18.45,18.92q12,11.46,24.72,22.11,14.63,12.22,30.31,23.06c7.11,4.89,14.41,9.5,21.63,14.22a34.16,34.16,0,0,0,9.2,4.34c2.8.81,5.58,1.72,8.39,2.49A453.88,453.88,0,0,0,581,796.62c2.93.48,5.88,1,8.84,1.17,2.54.17,4.07-1.37,4.31-3.93.11-1.2.08-2.42.08-3.64Q594.28,767.51,594.27,744.81Zm11.58,0q0,23.16,0,46.32a21.24,21.24,0,0,0,.12,3.09,3.88,3.88,0,0,0,4.07,3.61,13.72,13.72,0,0,0,2.72-.18c5.69-1,11.39-1.9,17.06-3,14-2.68,27.9-6.13,41.61-10.14a38.6,38.6,0,0,0,9.41-3.88c11-6.66,21.65-13.76,32-21.39,7.23-5.34,14.35-10.86,21.27-16.59,7.15-5.93,14.2-12,20.94-18.4A397.85,397.85,0,0,0,784.31,694c5.45-6.38,10.92-12.73,16.14-19.28,7.51-9.41,14.54-19.18,21.2-29.21,8-12.06,15.48-24.43,22.31-37.19a449.2,449.2,0,0,0,20.62-44.07c3.54-8.79,6.88-17.66,9.81-26.68a13.94,13.94,0,0,0,.12-8.26c-.78-2.75-1.53-5.5-2.38-8.23a281.68,281.68,0,0,0-19.68-47.81c-3.68-7-7.58-13.86-11.89-20.49a13.42,13.42,0,0,0-2.63-3c-1.27-1.07-2.58-.7-3.25.82a15.57,15.57,0,0,0-.89,3c-1.5,6.94-2.82,13.94-4.5,20.84a283.51,283.51,0,0,1-14.71,43.86,305.74,305.74,0,0,1-14,28.63,286.12,286.12,0,0,1-16.75,26.5,282,282,0,0,1-21.27,26.61c-4.53,5-9.32,9.74-14,14.54a238.72,238.72,0,0,1-19.25,17.28,294.48,294.48,0,0,1-80.66,46.92,283.25,283.25,0,0,1-29.82,9.67c-2.76.73-5.54,1.39-8.29,2.18a5.72,5.72,0,0,0-4.57,5.84c0,1,0,2.07,0,3.1Zm-11.58-120q0-23.25,0-46.5c0-1.15,0-2.31-.06-3.46a6,6,0,0,0-3.05-5.09,17.43,17.43,0,0,0-2.1-1.09q-9.31-4-18.21-8.82a173.13,173.13,0,0,1-34.8-25.1,180.64,180.64,0,0,1-42.47-59.12A170.45,170.45,0,0,1,482,440.14a165.05,165.05,0,0,1-3.82-36c.06-4.92.11-9.84.4-14.75.26-4.3.73-8.6,1.31-12.87a185.89,185.89,0,0,1,5.41-25.11,12.72,12.72,0,0,0,.51-2.86c.09-1.93-.92-2.9-2.81-2.59a13.68,13.68,0,0,0-3.46,1.1,230.23,230.23,0,0,0-20.88,10.8q-12,6.93-23.32,14.94a10.19,10.19,0,0,0-4.53,8.12c-.48,7.7-1.12,15.39-1.4,23.09-.25,7-.18,14.09-.14,21.13,0,5.65.14,11.3.39,16.95.3,6.91.58,13.84,1.23,20.73.91,9.49,2,19,3.31,28.42a396.41,396.41,0,0,0,8.06,40.94,426.07,426.07,0,0,0,15.19,48.52c4.59,12,9.62,23.77,15.31,35.27a21.44,21.44,0,0,0,5.92,7.3,294.59,294.59,0,0,0,32.49,22.84,288.21,288.21,0,0,0,31.65,16.53,278.25,278.25,0,0,0,42.45,14.91,29.43,29.43,0,0,0,4.63.93,3.6,3.6,0,0,0,4.19-3.37,27.63,27.63,0,0,0,.14-3.64Q594.28,648.13,594.27,624.79Zm11.58-.38v30.64q0,9.21,0,18.42c0,4.2,2.28,5.83,6.12,4.74,6.84-1.94,13.72-3.76,20.47-6a265.25,265.25,0,0,0,25.47-9.93q13-5.82,25.34-12.88a298.88,298.88,0,0,0,36.32-24.66A27.51,27.51,0,0,0,728.31,614c3.53-8.21,7.34-16.29,10.76-24.54a403.67,403.67,0,0,0,18.65-57.15c2.92-11.68,5.37-23.46,7.22-35.35,1.07-6.85,2.07-13.7,2.84-20.59.82-7.42,1.43-14.87,2-22.32.47-6.84.92-13.7,1-20.56.09-10.51,0-21-.3-31.53-.17-6.92-.72-13.83-1.15-20.74-.22-3.44-1.47-6.35-4.49-8.33-5.19-3.4-10.26-7-15.5-10.27a258.48,258.48,0,0,0-28.36-15.35,15.56,15.56,0,0,0-4-1.29,2.1,2.1,0,0,0-2.69,2.35,14.75,14.75,0,0,0,.48,3.23c1.24,5.2,2.65,10.37,3.76,15.59a155.27,155.27,0,0,1,3.29,26.56,191.86,191.86,0,0,1-.55,25.14,186,186,0,0,1-4.62,27.47A175.28,175.28,0,0,1,706,476.72a179.63,179.63,0,0,1-15.08,26.82A177.47,177.47,0,0,1,675,523.68a190.39,190.39,0,0,1-17.05,16.44A171.46,171.46,0,0,1,637,555.31,177.09,177.09,0,0,1,617.06,566c-2.6,1.18-5.22,2.32-7.76,3.61a5.93,5.93,0,0,0-3.42,5.6c0,1.15,0,2.31,0,3.46Zm92.36,211.4a142.19,142.19,0,0,0,27-2.06,167.45,167.45,0,0,0,31-8.18,159,159,0,0,0,23-10.55,170.6,170.6,0,0,0,51.26-43.69c10.26-13.21,18.48-27.67,25.84-42.64A223.1,223.1,0,0,0,866,706.25c2.3-6.33,4.34-12.77,6.46-19.17a10.44,10.44,0,0,0,.47-2.49c.07-1,.32-2.18-.77-2.82s-2,.13-2.8.75c-1.16.88-2.27,1.83-3.35,2.8-5.14,4.64-10.24,9.33-15.4,13.94-7.52,6.73-15.42,13-23.43,19.14-10.61,8.14-21.6,15.75-32.88,22.93q-14.85,9.45-30.36,17.77-14.7,7.89-29.95,14.67Q713.38,783,692,790.19c-13.37,4.51-26.9,8.47-40.65,11.64-7.57,1.74-15.2,3.27-22.82,4.84-3.33.68-6.7,1.19-10,1.82a20,20,0,0,0-3.52.9c-2,.77-2.34,2.35-.82,3.79a12,12,0,0,0,2.79,2c4.21,2.17,8.41,4.38,12.71,6.35a162.61,162.61,0,0,0,68.54,14.26ZM502.3,836c4.37-.19,8.74-.31,13.1-.58a153.1,153.1,0,0,0,25.2-3.84,165.61,165.61,0,0,0,26-8.37,134.59,134.59,0,0,0,17-8.3,10.9,10.9,0,0,0,2.54-2c1.13-1.24.85-2.54-.68-3.25a12.64,12.64,0,0,0-3-.89c-5.07-1-10.17-1.81-15.24-2.81a469.25,469.25,0,0,1-51.55-13.2,465.21,465.21,0,0,1-54.87-21.3,430.92,430.92,0,0,1-43.49-23c-8.39-5.14-16.71-10.41-24.9-15.88q-13.64-9.1-26.39-19.47c-6-4.86-12-9.76-17.79-14.81-4.78-4.13-9.33-8.52-14-12.76a32.23,32.23,0,0,0-4.25-3.41c-1.7-1.08-2.88-.39-2.83,1.62a16,16,0,0,0,.63,4.12,262.62,262.62,0,0,0,13.12,35,294.65,294.65,0,0,0,16.54,31,173.08,173.08,0,0,0,36,42.32,168.55,168.55,0,0,0,33.86,22.32A162,162,0,0,0,451.15,828,164.47,164.47,0,0,0,502.3,836ZM462,758.11c.31-.19.84-.35,1-.7s0-.83-.26-1.13a13.82,13.82,0,0,0-1.87-2.23c-2.41-2.22-4.82-4.44-7.33-6.56q-11.68-9.9-22.62-20.62c-6.18-6.1-12.16-12.4-18.1-18.74-4.32-4.61-8.51-9.35-12.59-14.17q-14.13-16.69-26.61-34.69A467.66,467.66,0,0,1,340.73,604c-5.87-11.62-11.21-23.47-16.11-35.52a43.9,43.9,0,0,0-2.24-4.57,1.93,1.93,0,0,0-1.84-1.28,2.19,2.19,0,0,0-1.82,1.82,32.78,32.78,0,0,0-.92,3.89,229.63,229.63,0,0,0-2.17,25.77,288.37,288.37,0,0,0,.55,31c.59,7.76,1.52,15.46,2.54,23.17a17.34,17.34,0,0,0,5.08,10.24c4.74,4.79,9.42,9.65,14.27,14.33,5.37,5.19,10.81,10.32,16.4,15.27S366,698,371.87,702.8A396.81,396.81,0,0,0,406.71,728q11.67,7.46,23.61,14.48c5.55,3.27,11.24,6.31,17,9.27,3.93,2,8,3.77,12.05,5.6A19,19,0,0,0,462,758.11ZM884.73,604.89c-.15-4.37-.21-8.75-.49-13.11-.44-6.85-1-13.69-1.58-20.53a43.69,43.69,0,0,0-.71-4.68,10.68,10.68,0,0,0-.89-2.77c-.75-1.47-2-1.55-3-.31a5,5,0,0,0-.71,1.06c-.64,1.31-1.28,2.62-1.87,4-4.09,9.22-8,18.52-12.31,27.65-5.23,11.17-11.11,22-17.33,32.68a458.08,458.08,0,0,1-25.41,38.91c-7,9.69-14.35,19.17-22.28,28.15-6.76,7.64-13.59,15.23-20.61,22.64-5,5.28-10.37,10.25-15.63,15.31-2.58,2.48-5.26,4.86-8,7.23-4.28,3.77-8.63,7.48-12.91,11.26a33,33,0,0,0-3.3,3.39,2.18,2.18,0,0,0-.55,1.75c.31.84,1.22.53,1.92.37a6.33,6.33,0,0,0,1-.31c1.92-.77,3.87-1.46,5.73-2.34,9.45-4.5,18.63-9.5,27.64-14.8a465.44,465.44,0,0,0,48.18-32.5,452,452,0,0,0,34.69-29.53c6.57-6.22,12.83-12.78,19.25-19.16a19.67,19.67,0,0,0,5.83-11.63A322.5,322.5,0,0,0,884.73,604.89ZM375.22,434.1c.51,3.67,1,7.34,1.52,11a271.89,271.89,0,0,0,11.71,48.48,275,275,0,0,0,17.26,40.35,240.1,240.1,0,0,0,13.15,22.49q6.76,10.07,14,19.81c2.85,3.85,6.05,7.44,9.17,11.09a22.3,22.3,0,0,0,3,2.65,1.51,1.51,0,0,0,1.84.35c.64-.38.61-1,.49-1.62a33.93,33.93,0,0,0-.89-3.9c-2.48-7.43-5.09-14.82-7.54-22.27a403.51,403.51,0,0,1-11.16-41.91c-2.45-11.47-4.52-23-5.94-34.66-1.06-8.74-1.92-17.51-2.67-26.28-.54-6.42-.76-12.85-1.12-19.28-.05-.85-.17-1.7-.17-2.55,0-11.24,0-22.48,0-33.72,0-3.4.34-6.79.45-10.19a9.9,9.9,0,0,0-.34-2.7,2.18,2.18,0,0,0-3.31-1.68,6.84,6.84,0,0,0-2,1.25c-3.8,3.41-7.68,6.73-11.31,10.31-4.28,4.22-8.42,8.6-12.45,13.05-3.79,4.19-7.38,8.55-11,12.88A10.56,10.56,0,0,0,375.22,434.1Zm407.15-13.23h.22c-.16,5.64-.27,11.29-.48,16.93-.19,5.28-.36,10.57-.75,15.83-.63,8.3-1.34,16.59-2.2,24.86-1.22,11.79-3.12,23.48-5.4,35.11q-3.32,16.9-8,33.51c-3.22,11.48-6.93,22.79-11,34a75.06,75.06,0,0,0-2.12,7.53,1.78,1.78,0,0,0,.52,1.56c.38.24,1.12,0,1.67-.13a2.24,2.24,0,0,0,.87-.65c1.58-1.59,3.27-3.1,4.71-4.82A273.9,273.9,0,0,0,782,555.24a285,285,0,0,0,24.2-47.11,284.3,284.3,0,0,0,18.31-71.67,12.27,12.27,0,0,0-2.7-9.84c-4.8-5.89-9.71-11.68-15-17.14q-4.87-5-9.9-9.92-3.65-3.57-7.45-7a24.23,24.23,0,0,0-3.77-2.85c-1.75-1-3.33-.32-3.7,1.66a21.06,21.06,0,0,0-.22,4.35c.14,4.06.46,8.12.55,12.19C782.45,412.24,782.37,416.56,782.37,420.87Zm-292.47-24c0,1.64-.06,3.29,0,4.92a8.62,8.62,0,0,0,.58,2.65,1.08,1.08,0,0,0,1.9.4,11,11,0,0,0,1.85-2.45,33.08,33.08,0,0,0,1.53-3.5c5.18-12.72,10.65-25.3,16.92-37.52,4.24-8.27,8.81-16.36,13.2-24.55a15.83,15.83,0,0,0,1.47-3.51c.47-1.84-.44-2.8-2.33-2.65a9.9,9.9,0,0,0-2.15.38q-7.92,2.44-15.82,4.93a9.53,9.53,0,0,0-6.24,6.16,174.57,174.57,0,0,0-7,22.82A153.28,153.28,0,0,0,489.9,396.84Zm220.33.29.27,0c-.5-5.56-.86-11.14-1.54-16.68a152.25,152.25,0,0,0-6.13-27.92c-1.19-3.7-2.57-7.34-3.9-11a9,9,0,0,0-6.23-5.68q-7.92-2.46-15.86-4.85a7.63,7.63,0,0,0-2.33-.32,1.69,1.69,0,0,0-1.86,2,6.16,6.16,0,0,0,.47,2.11,20.48,20.48,0,0,0,1.39,2.77c5.75,9.95,11.15,20.08,16.09,30.45,2.25,4.72,4.49,9.44,6.59,14.23,2.74,6.23,5.31,12.53,8,18.79a22.44,22.44,0,0,0,1.77,3.17c.37.6.82,1.29,1.73,1s1-1,1.18-1.7a16.41,16.41,0,0,0,.34-2.52C710.27,399.69,710.23,398.41,710.23,397.13Z"/></svg>