<svg id="Layer_1" data-name="Layer 1" xmlns="http://www.w3.org/2000/svg" viewBox="0 0 1200 1200"><defs><style>.cls-1{fill:#fff;}</style></defs><title>Lindvino_White</title><path class="cls-1" d="M218.62,943.78H256v14.35h-54.8V864.68h17.38Z"/><path class="cls-1" d="M313.49,958.13H296V864.68h17.45Z"/><path class="cls-1" d="M371.39,864.78a4.51,4.51,0,0,1,1.39.38,4.82,4.82,0,0,1,1.2.85,12.5,12.5,0,0,1,1.29,1.45L424.32,930c-.17-1.5-.29-3-.35-4.43s-.1-2.78-.1-4V864.68h15.32v93.45h-9a7.93,7.93,0,0,1-3.42-.65,7.47,7.47,0,0,1-2.65-2.33l-48.86-62.23c.13,1.38.23,2.75.29,4.11s.1,2.59.1,3.71v57.39H360.34V864.68h9.12A14.8,14.8,0,0,1,371.39,864.78Z"/><path class="cls-1" d="M566.89,911.41a50.51,50.51,0,0,1-3.43,18.86A42.37,42.37,0,0,1,538.9,954.7a52.3,52.3,0,0,1-19.32,3.43H483.91V864.68h35.67a51.9,51.9,0,0,1,19.32,3.46,43.47,43.47,0,0,1,14.93,9.63,42.83,42.83,0,0,1,9.63,14.76A50.62,50.62,0,0,1,566.89,911.41Zm-17.78,0a43.13,43.13,0,0,0-2.06-13.8,29.14,29.14,0,0,0-5.89-10.34,25.39,25.39,0,0,0-9.27-6.5,32,32,0,0,0-12.31-2.26H501.42V944.3h18.16A31.85,31.85,0,0,0,531.89,942a25.27,25.27,0,0,0,9.27-6.5,29.14,29.14,0,0,0,5.89-10.34A43.11,43.11,0,0,0,549.11,911.41Z"/><path class="cls-1" d="M593.57,864.68h14a5.86,5.86,0,0,1,3.68,1.1,6.76,6.76,0,0,1,2.14,2.84l22,57q1.1,2.77,2.1,6.11t1.9,7a79.69,79.69,0,0,1,3.69-13.12l21.91-57a6.66,6.66,0,0,1,2.06-2.71,5.59,5.59,0,0,1,3.69-1.23h14L647,958.13h-15.7Z"/><path class="cls-1" d="M740,958.13H722.5V864.68H740Z"/><path class="cls-1" d="M797.85,864.78a4.51,4.51,0,0,1,1.39.38,4.82,4.82,0,0,1,1.2.85,12.5,12.5,0,0,1,1.29,1.45l49,62.49c-.17-1.5-.29-3-.35-4.43s-.1-2.78-.1-4V864.68h15.32v93.45h-9a7.93,7.93,0,0,1-3.42-.65,7.47,7.47,0,0,1-2.65-2.33l-48.86-62.23c.13,1.38.23,2.75.29,4.11s.1,2.59.1,3.71v57.39H786.8V864.68h9.12A14.8,14.8,0,0,1,797.85,864.78Z"/><path class="cls-1" d="M1000,911.41a51.66,51.66,0,0,1-3.43,19A45.11,45.11,0,0,1,987,945.59a43.78,43.78,0,0,1-14.93,10,54,54,0,0,1-38.68,0,43.84,43.84,0,0,1-15-10,44.92,44.92,0,0,1-9.67-15.15,54.68,54.68,0,0,1,0-38.07,44.83,44.83,0,0,1,9.67-15.15,43.7,43.7,0,0,1,15-10,50.63,50.63,0,0,1,19.35-3.58A49.86,49.86,0,0,1,972,867.27a43.55,43.55,0,0,1,24.55,25.1A51.68,51.68,0,0,1,1000,911.41Zm-17.84,0a43.72,43.72,0,0,0-2-13.8,29.23,29.23,0,0,0-5.85-10.37,25.07,25.07,0,0,0-9.28-6.53,34.74,34.74,0,0,0-24.65,0,25.45,25.45,0,0,0-9.34,6.53,29.34,29.34,0,0,0-5.91,10.37,47,47,0,0,0,0,27.59A29,29,0,0,0,931,935.54a25.62,25.62,0,0,0,9.34,6.5A34.74,34.74,0,0,0,965,942a25.23,25.23,0,0,0,9.28-6.5,28.92,28.92,0,0,0,5.85-10.34A43.7,43.7,0,0,0,982.16,911.41Z"/><path class="cls-1" d="M711.92,537.32A7.79,7.79,0,0,0,702.85,550a96.25,96.25,0,0,1,6,151.86,162.89,162.89,0,0,1-15.12,10.45,158.35,158.35,0,0,1-110,20.75,174.23,174.23,0,0,0,129.6-137.11c.16-.88.32-1.76.47-2.64a7.77,7.77,0,0,0-5.71-8.73l-.15,0a7.64,7.64,0,0,0-9.49,6.18c-.13.79-.27,1.58-.42,2.36A158.65,158.65,0,0,1,546.5,722.45a7.78,7.78,0,0,0-2.81,14.95A174.47,174.47,0,0,0,718.54,714l.22-.18a111.84,111.84,0,0,0-6.84-176.53Z"/><path class="cls-1" d="M754.17,319.43a112.31,112.31,0,0,0-67.33-74.89,70.23,70.23,0,0,0-91.41,41.3l-65.18,179.1a157.71,157.71,0,0,1-23.26-12,95.24,95.24,0,0,1-36.05-52.43,96.36,96.36,0,0,1,67.63-118.12,7.78,7.78,0,1,0-4.08-15A111.81,111.81,0,0,0,498,465.64c.14.1.28.2.43.29a174.22,174.22,0,0,0,26.45,13.65L443.73,702.65a55.06,55.06,0,0,1-23,27.46,7.78,7.78,0,0,0,4,14.45,7.71,7.71,0,0,0,4-1.11c.69-.41,1.37-.85,2-1.29a69.5,69.5,0,0,0,37.6,10.91,70.58,70.58,0,0,0,65.73-45.52l78.66-216.09A174.13,174.13,0,0,0,737.83,413,111.92,111.92,0,0,0,754.17,319.43ZM519.51,702.15a54.92,54.92,0,0,1-51.14,35.36,54.18,54.18,0,0,1-24.85-6,70.58,70.58,0,0,0,14.79-23.46l81.25-223.22a175.31,175.31,0,0,0,56.19,7.82ZM724.84,404.4A158.82,158.82,0,0,1,633,471.67c-4.7,1.27-9.44,2.3-14.2,3.14l69.35-190.55a7.78,7.78,0,0,0-14.63-5.32l-72,197.92a159.62,159.62,0,0,1-56.62-6.64l65.16-179A54.65,54.65,0,0,1,681.19,259,96.3,96.3,0,0,1,725,404.16Z"/></svg>